<svg width="16" height="16" viewBox="0 0 16 16" fill="none" xmlns="http://www.w3.org/2000/svg">
<mask id="mask0_6858_47976" style="mask-type:alpha" maskUnits="userSpaceOnUse" x="0" y="0" width="16" height="16">
<rect width="16" height="16" fill="#D9D9D9"/>
</mask>
<g mask="url(#mask0_6858_47976)">
<path d="M5.0013 14.6654C4.35686 14.6654 3.80686 14.4376 3.3513 13.982C2.89575 13.5265 2.66797 12.9765 2.66797 12.332V3.66536C2.66797 3.02092 2.89575 2.47092 3.3513 2.01536C3.80686 1.55981 4.35686 1.33203 5.0013 1.33203H13.3346V11.332C13.0569 11.332 12.8207 11.4293 12.6263 11.6237C12.4319 11.8181 12.3346 12.0543 12.3346 12.332C12.3346 12.6098 12.4319 12.8459 12.6263 13.0404C12.8207 13.2348 13.0569 13.332 13.3346 13.332V14.6654H5.0013ZM4.0013 10.2154C4.15686 10.1376 4.31797 10.082 4.48464 10.0487C4.6513 10.0154 4.82352 9.9987 5.0013 9.9987H5.33464V2.66536H5.0013C4.72352 2.66536 4.48741 2.76259 4.29297 2.95703C4.09852 3.15148 4.0013 3.38759 4.0013 3.66536V10.2154ZM6.66797 9.9987H12.0013V2.66536H6.66797V9.9987ZM5.0013 13.332H11.218C11.1513 13.1765 11.0985 13.0181 11.0596 12.857C11.0207 12.6959 11.0013 12.5209 11.0013 12.332C11.0013 12.1543 11.018 11.982 11.0513 11.8154C11.0846 11.6487 11.1402 11.4876 11.218 11.332H5.0013C4.71241 11.332 4.47352 11.4293 4.28464 11.6237C4.09575 11.8181 4.0013 12.0543 4.0013 12.332C4.0013 12.6209 4.09575 12.8598 4.28464 13.0487C4.47352 13.2376 4.71241 13.332 5.0013 13.332Z" fill="#1A73E8"/>
</g>
</svg>
