<svg width="20" height="20" viewBox="0 0 20 20" fill="none" xmlns="http://www.w3.org/2000/svg">
<mask id="mask0_7284_65563" style="mask-type:alpha" maskUnits="userSpaceOnUse" x="0" y="0" width="20" height="20">
<rect width="20" height="20" fill="#D9D9D9"/>
</mask>
<g mask="url(#mask0_7284_65563)">
<path d="M3.33464 17.5C2.8763 17.5 2.48394 17.3368 2.15755 17.0104C1.83116 16.684 1.66797 16.2917 1.66797 15.8333V4.16667C1.66797 3.70833 1.83116 3.31597 2.15755 2.98958C2.48394 2.66319 2.8763 2.5 3.33464 2.5H16.668C17.1263 2.5 17.5187 2.66319 17.8451 2.98958C18.1714 3.31597 18.3346 3.70833 18.3346 4.16667V15.8333C18.3346 16.2917 18.1714 16.684 17.8451 17.0104C17.5187 17.3368 17.1263 17.5 16.668 17.5H3.33464ZM3.33464 15.8333H16.668V4.16667H3.33464V15.8333ZM5.0013 14.1667H15.0013V12.5H5.0013V14.1667ZM5.0013 10.8333H8.33464V5.83333H5.0013V10.8333ZM10.0013 10.8333H15.0013V9.16667H10.0013V10.8333ZM10.0013 7.5H15.0013V5.83333H10.0013V7.5Z" fill="#575757"/>
</g>
</svg>
