<svg width="32" height="46" viewBox="0 0 32 46" fill="none" xmlns="http://www.w3.org/2000/svg">
<path d="M28.669 31.0755C28.6147 31.0849 28.5521 31.1067 28.505 31.1347C28.3406 31.2329 28.1417 31.3587 27.9721 31.4585C27.1921 31.9192 26.4165 32.3772 25.6362 32.8352C24.0789 33.749 22.5375 34.6514 21.0006 35.5597C20.2704 35.9914 19.5835 36.3826 18.8609 36.8056C17.9241 37.3541 16.9922 37.9549 16.0277 38.4398C16.0115 38.4481 16.0115 38.5037 15.9512 38.5196C15.7665 38.568 15.7799 38.4651 15.7301 38.4398C15.0574 38.1007 14.4248 37.7136 13.7776 37.3359C12.6211 36.6605 11.4832 35.9723 10.3038 35.278C9.99585 35.0965 9.69096 34.9666 9.41274 34.7499C9.41585 34.6731 9.51966 34.5905 9.54112 34.5502C9.80586 34.047 10.1007 33.522 10.4149 33.0505C10.4526 32.9942 10.5582 32.7377 10.6066 32.7381C10.6721 32.7906 10.752 32.8182 10.8243 32.859C11.9394 33.4863 13.0257 34.2418 14.1285 34.8947C14.2171 34.9471 14.5653 35.1799 14.5653 35.0624V28.3485C14.9916 28.4535 15.4374 28.5094 15.8962 28.5094C16.0407 28.5094 16.184 28.5038 16.3257 28.4929C16.4654 28.4839 16.6096 28.47 16.7613 28.4516C16.8007 28.4468 16.8392 28.4354 16.8779 28.4226C16.9634 28.4073 17.0482 28.3901 17.1322 28.3709C17.1518 28.3725 17.1719 28.3758 17.1925 28.3814V35.1138L24.6925 30.5396L19.6575 27.0953C19.6488 27.0808 19.6441 27.0661 19.6425 27.0513C19.8365 26.8732 20.0177 26.6815 20.1846 26.4775C20.2343 26.4306 20.2734 26.3917 20.2925 26.3679C20.4415 26.1825 20.5787 25.9608 20.6999 25.7314C20.8165 25.5288 20.9205 25.3181 21.0112 25.1005C21.0271 25.0801 21.0423 25.0533 21.0451 25.017C21.0533 24.9963 21.0615 24.9755 21.0694 24.9547L26.0417 28.2083V21.2343H28.669V31.0755Z" fill="#0E4DCA"/>
<path fill-rule="evenodd" clip-rule="evenodd" d="M10.7301 24.9732C11.0502 25.7998 11.5633 26.5304 12.2144 27.1097C12.1898 27.1226 12.1798 27.1529 12.1504 27.1704C11.4147 27.6104 10.7015 28.1427 9.95535 28.6459C9.32032 29.0744 8.60256 29.4878 8.00837 29.9116C7.98268 29.9298 7.86213 30.0277 7.7964 30.084C7.82045 30.2411 7.83294 30.402 7.83294 30.5658C7.83294 32.3123 6.41526 33.7283 4.66647 33.7283C2.91768 33.7283 1.5 32.3123 1.5 30.5658C1.5 28.8192 2.91768 27.4034 4.66647 27.4034C5.29789 27.4034 5.88614 27.5879 6.38009 27.906C6.49011 27.7956 6.66039 27.7138 6.79509 27.6225C8.00077 26.8027 9.18084 25.9646 10.4045 25.1941C10.512 25.1266 10.6103 25.0298 10.7301 24.9732ZM4.66647 29.3733C4.00709 29.3733 3.47256 29.9073 3.47256 30.5658C3.47256 31.2243 4.00709 31.7582 4.66647 31.7582C5.32585 31.7582 5.86039 31.2243 5.86039 30.5658C5.86039 29.9073 5.32585 29.3733 4.66647 29.3733Z" fill="#0E4DCA"/>
<path d="M15.0034 19.9932C15.2563 19.9382 16.3627 19.8267 16.5956 19.9348C16.7029 19.9845 16.6907 19.9635 16.7932 19.9942C17.6075 20.2396 18.4207 20.8943 18.7598 21.742C18.9942 22.3275 19.1007 22.9742 18.954 23.6682C18.7788 24.4957 18.0494 25.4668 17.2039 25.8048C16.5596 26.0623 15.8315 26.1726 15.073 25.9998C15.0473 25.9939 15.0521 25.9376 15.0258 25.9317C14.3109 25.7748 13.599 25.2103 13.2128 24.5101C12.8502 23.8524 12.6979 23.0903 12.8729 22.2903C13.062 21.4272 13.8306 20.3737 14.7476 20.1298C14.7635 20.1256 14.9875 19.9967 15.0034 19.9932Z" fill="#0E4DCA"/>
<path d="M15.8072 7.4737C15.9921 7.42532 15.9786 7.52829 16.0284 7.55353C17.1358 8.1117 18.2016 8.81782 19.28 9.44996C19.4942 9.57577 19.8524 9.72268 20.0514 9.85367C20.7937 10.3427 21.6799 10.818 22.4392 11.2908C22.504 11.3312 22.5825 11.3713 22.6544 11.3965L21.3584 13.4336L17.1929 10.8781V17.6019C17.1203 17.5845 17.0471 17.5686 16.9734 17.5541C16.9597 17.5491 16.946 17.5451 16.932 17.5431C16.9094 17.5398 16.8869 17.5367 16.8643 17.5337C16.5499 17.4783 16.2264 17.4494 15.8962 17.4494C15.4376 17.4494 14.9921 17.5051 14.566 17.6101V10.9299C14.566 10.7537 14.2628 11.064 14.2441 11.0751C12.0082 12.4223 9.69925 13.7844 7.5374 15.1825C7.46541 15.1884 7.10967 15.3784 7.09894 15.4227C7.08131 15.4877 7.13286 15.5139 7.17093 15.5471C7.27059 15.6345 7.472 15.7341 7.5907 15.8156C9.08672 16.8446 10.499 17.8064 11.9982 18.8181C12.0503 18.8532 12.1356 18.8633 12.1663 18.8924C11.5192 19.4818 11.0126 20.2223 10.7026 21.0582L5.71574 17.7491V24.8267H3.05417V14.9177C3.17494 14.9305 3.25214 14.8254 3.32619 14.7833C4.7132 13.9925 6.06701 13.2093 7.45298 12.3957C8.7386 11.6412 10.1087 10.818 11.4257 10.0465C12.8139 9.23363 14.2929 8.27656 15.7307 7.55353C15.7471 7.54524 15.7471 7.48961 15.8072 7.4737Z" fill="#0E4DCA"/>
<path fill-rule="evenodd" clip-rule="evenodd" d="M27.3335 12.2996C29.0823 12.2996 30.5 13.7155 30.5 15.4621C30.5 17.2086 29.0823 18.6245 27.3335 18.6245C26.6888 18.6245 26.089 18.432 25.5887 18.1015C25.5445 18.1571 25.4746 18.1573 25.4108 18.198C24.1297 19.0179 22.8648 19.932 21.5612 20.7992C21.437 20.8818 21.3041 20.9727 21.1927 21.074C21.146 21.0763 21.1139 21.0723 21.0918 21.0633C21.0737 21.0145 21.0549 20.9659 21.0355 20.9178C21.034 20.9057 21.0319 20.8934 21.0286 20.8811C21.0274 20.8764 21.0133 20.8534 20.9966 20.8235C20.7859 20.327 20.5047 19.8675 20.1654 19.4577C20.1301 19.4141 20.0948 19.3713 20.0594 19.3296C20.0519 19.3209 20.0392 19.3081 20.0229 19.2925C19.9237 19.1817 19.8199 19.0748 19.712 18.9723C19.6862 18.8381 19.867 18.841 19.9125 18.808C21.2117 17.8631 22.624 16.9718 23.9549 16.0783C24.0394 16.0217 24.1094 15.9422 24.1952 15.8848C24.1766 15.7466 24.167 15.6054 24.167 15.4621C24.167 13.7155 25.5847 12.2996 27.3335 12.2996ZM27.3335 14.2697C26.6741 14.2697 26.1396 14.8035 26.1396 15.4621C26.1396 16.1206 26.6741 16.6545 27.3335 16.6545C27.9929 16.6545 28.5275 16.1207 28.5275 15.4621C28.5275 14.8035 27.9929 14.2697 27.3335 14.2697Z" fill="#0E4DCA"/>
</svg>
