<svg width="157" height="46" viewBox="0 0 157 46" fill="none" xmlns="http://www.w3.org/2000/svg">
<path d="M28.669 31.0794C28.6147 31.0888 28.5521 31.1106 28.505 31.1386C28.3406 31.2368 28.1417 31.3626 27.9721 31.4625C27.1921 31.9231 26.4165 32.3811 25.6362 32.8391C24.0789 33.7529 22.5375 34.6554 21.0006 35.5636C20.2704 35.9953 19.5835 36.3865 18.8609 36.8095C17.9241 37.358 16.9922 37.9588 16.0277 38.4437C16.0115 38.452 16.0115 38.5076 15.9512 38.5235C15.7665 38.5719 15.7799 38.469 15.7301 38.4437C15.0574 38.1046 14.4248 37.7175 13.7776 37.3398C12.6211 36.6644 11.4832 35.9763 10.3038 35.2819C9.99585 35.1005 9.69096 34.9705 9.41274 34.7538C9.41585 34.6771 9.51966 34.5945 9.54112 34.5541C9.80586 34.0509 10.1007 33.5259 10.4149 33.0544C10.4526 32.9981 10.5582 32.7416 10.6066 32.742C10.6721 32.7945 10.752 32.8221 10.8243 32.8629C11.9394 33.4902 13.0257 34.2457 14.1285 34.8986C14.2171 34.951 14.5653 35.1838 14.5653 35.0663V28.3524C14.9916 28.4574 15.4374 28.5133 15.8962 28.5133C16.0407 28.5133 16.184 28.5077 16.3257 28.4968C16.4654 28.4878 16.6096 28.474 16.7613 28.4555C16.8007 28.4508 16.8392 28.4393 16.8779 28.4265C16.9634 28.4112 17.0482 28.394 17.1322 28.3748C17.1518 28.3764 17.1719 28.3798 17.1925 28.3853V35.1177L24.6925 30.5435L19.6575 27.0992C19.6488 27.0847 19.6441 27.07 19.6425 27.0552C19.8365 26.8771 20.0177 26.6854 20.1846 26.4814C20.2343 26.4345 20.2734 26.3956 20.2925 26.3718C20.4415 26.1864 20.5787 25.9647 20.6999 25.7353C20.8165 25.5327 20.9205 25.322 21.0112 25.1044C21.0271 25.084 21.0423 25.0572 21.0451 25.0209C21.0533 25.0002 21.0615 24.9795 21.0694 24.9586L26.0417 28.2122V21.2382H28.669V31.0794Z" fill="#0E4DCA"/>
<path fill-rule="evenodd" clip-rule="evenodd" d="M10.7301 24.9771C11.0502 25.8037 11.5633 26.5343 12.2144 27.1136C12.1898 27.1265 12.1798 27.1568 12.1504 27.1743C11.4147 27.6143 10.7015 28.1466 9.95535 28.6498C9.32032 29.0783 8.60256 29.4917 8.00837 29.9155C7.98268 29.9337 7.86213 30.0316 7.7964 30.0879C7.82045 30.245 7.83294 30.4059 7.83294 30.5697C7.83294 32.3162 6.41526 33.7322 4.66647 33.7322C2.91768 33.7322 1.5 32.3162 1.5 30.5697C1.5 28.8231 2.91768 27.4073 4.66647 27.4073C5.29789 27.4073 5.88614 27.5918 6.38009 27.91C6.49011 27.7995 6.66039 27.7177 6.79509 27.6264C8.00077 26.8066 9.18084 25.9685 10.4045 25.198C10.512 25.1305 10.6103 25.0337 10.7301 24.9771ZM4.66647 29.3772C4.00709 29.3772 3.47256 29.9112 3.47256 30.5697C3.47256 31.2282 4.00709 31.7621 4.66647 31.7621C5.32585 31.7621 5.86039 31.2282 5.86039 30.5697C5.86039 29.9112 5.32585 29.3772 4.66647 29.3772Z" fill="#0E4DCA"/>
<path d="M15.0034 19.9971C15.2563 19.9422 16.3627 19.8306 16.5956 19.9387C16.7029 19.9884 16.6907 19.9674 16.7932 19.9981C17.6075 20.2435 18.4207 20.8982 18.7598 21.746C18.9942 22.3314 19.1007 22.9781 18.954 23.6721C18.7788 24.4996 18.0494 25.4707 17.2039 25.8087C16.5596 26.0662 15.8315 26.1765 15.073 26.0037C15.0473 25.9978 15.0521 25.9415 15.0258 25.9356C14.3109 25.7787 13.599 25.2142 13.2128 24.5141C12.8502 23.8563 12.6979 23.0942 12.8729 22.2942C13.062 21.4311 13.8306 20.3776 14.7476 20.1337C14.7635 20.1295 14.9875 20.0006 15.0034 19.9971Z" fill="#0E4DCA"/>
<path d="M15.8072 7.47761C15.9921 7.42922 15.9786 7.53219 16.0284 7.55743C17.1358 8.11561 18.2016 8.82173 19.28 9.45386C19.4942 9.57968 19.8524 9.72659 20.0514 9.85757C20.7937 10.3466 21.6799 10.8219 22.4392 11.2947C22.504 11.3351 22.5825 11.3752 22.6544 11.4004L21.3584 13.4375L17.1929 10.882V17.6058C17.1203 17.5884 17.0471 17.5725 16.9734 17.558C16.9597 17.553 16.946 17.549 16.932 17.547C16.9094 17.5437 16.8869 17.5406 16.8643 17.5376C16.5499 17.4822 16.2264 17.4533 15.8962 17.4533C15.4376 17.4533 14.9921 17.5091 14.566 17.614V10.9338C14.566 10.7576 14.2628 11.0679 14.2441 11.079C12.0082 12.4262 9.69925 13.7883 7.5374 15.1864C7.46541 15.1923 7.10967 15.3824 7.09894 15.4266C7.08131 15.4916 7.13286 15.5178 7.17093 15.551C7.27059 15.6384 7.472 15.738 7.5907 15.8195C9.08672 16.8485 10.499 17.8103 11.9982 18.822C12.0503 18.8571 12.1356 18.8672 12.1663 18.8963C11.5192 19.4857 11.0126 20.2262 10.7026 21.0621L5.71574 17.753V24.8306H3.05417V14.9216C3.17494 14.9344 3.25214 14.8294 3.32619 14.7872C4.7132 13.9964 6.06701 13.2132 7.45298 12.3996C8.7386 11.6451 10.1087 10.8219 11.4257 10.0504C12.8139 9.23753 14.2929 8.28047 15.7307 7.55743C15.7471 7.54914 15.7471 7.49352 15.8072 7.47761Z" fill="#0E4DCA"/>
<path fill-rule="evenodd" clip-rule="evenodd" d="M27.3335 12.3035C29.0823 12.3035 30.5 13.7194 30.5 15.466C30.5 17.2125 29.0823 18.6285 27.3335 18.6285C26.6888 18.6285 26.089 18.4359 25.5887 18.1054C25.5445 18.161 25.4746 18.1612 25.4108 18.2019C24.1297 19.0218 22.8648 19.9359 21.5612 20.8031C21.437 20.8857 21.3041 20.9766 21.1927 21.0779C21.146 21.0802 21.1139 21.0762 21.0918 21.0672C21.0737 21.0184 21.0549 20.9698 21.0355 20.9217C21.034 20.9096 21.0319 20.8973 21.0286 20.885C21.0274 20.8804 21.0133 20.8573 20.9966 20.8274C20.7859 20.3309 20.5047 19.8714 20.1654 19.4616C20.1301 19.418 20.0948 19.3753 20.0594 19.3335C20.0519 19.3248 20.0392 19.312 20.0229 19.2964C19.9237 19.1856 19.8199 19.0787 19.712 18.9762C19.6862 18.842 19.867 18.8449 19.9125 18.8119C21.2117 17.867 22.624 16.9757 23.9549 16.0823C24.0394 16.0256 24.1094 15.9461 24.1952 15.8887C24.1766 15.7505 24.167 15.6093 24.167 15.466C24.167 13.7194 25.5847 12.3035 27.3335 12.3035ZM27.3335 14.2736C26.6741 14.2736 26.1396 14.8074 26.1396 15.466C26.1396 16.1245 26.6741 16.6584 27.3335 16.6584C27.9929 16.6584 28.5275 16.1246 28.5275 15.466C28.5275 14.8074 27.9929 14.2736 27.3335 14.2736Z" fill="#0E4DCA"/>
<path d="M41 23.0003V9.70034H47.042C48.486 9.70034 49.759 9.97901 50.861 10.5363C51.963 11.081 52.8243 11.8473 53.445 12.8353C54.0657 13.8233 54.376 14.995 54.376 16.3503C54.376 17.693 54.0657 18.8647 53.445 19.8653C52.8243 20.8533 51.963 21.626 50.861 22.1833C49.759 22.728 48.486 23.0003 47.042 23.0003H41ZM44.078 20.4733H46.89C47.7767 20.4733 48.543 20.3087 49.189 19.9793C49.8477 19.6373 50.3543 19.156 50.709 18.5353C51.0763 17.9147 51.26 17.1863 51.26 16.3503C51.26 15.5017 51.0763 14.7733 50.709 14.1653C50.3543 13.5447 49.8477 13.0697 49.189 12.7403C48.543 12.3983 47.7767 12.2273 46.89 12.2273H44.078V20.4733Z" fill="#0E4DCA"/>
<path d="M62.7583 23.0003V21.0053L62.5683 20.5683V16.9963C62.5683 16.363 62.3719 15.869 61.9793 15.5143C61.5993 15.1597 61.0103 14.9823 60.2123 14.9823C59.6676 14.9823 59.1293 15.071 58.5973 15.2483C58.0779 15.413 57.6346 15.641 57.2673 15.9323L56.2033 13.8613C56.7606 13.4687 57.4319 13.1647 58.2173 12.9493C59.0026 12.734 59.8006 12.6263 60.6113 12.6263C62.1693 12.6263 63.3789 12.9937 64.2403 13.7283C65.1016 14.463 65.5323 15.6093 65.5323 17.1673V23.0003H62.7583ZM59.6423 23.1523C58.8443 23.1523 58.1603 23.0193 57.5903 22.7533C57.0203 22.4747 56.5833 22.101 56.2793 21.6323C55.9753 21.1637 55.8233 20.638 55.8233 20.0553C55.8233 19.4473 55.9689 18.9153 56.2603 18.4593C56.5643 18.0033 57.0393 17.6487 57.6853 17.3953C58.3313 17.1293 59.1736 16.9963 60.2123 16.9963H62.9293V18.7253H60.5353C59.8386 18.7253 59.3573 18.8393 59.0913 19.0673C58.8379 19.2953 58.7113 19.5803 58.7113 19.9223C58.7113 20.3023 58.8569 20.6063 59.1483 20.8343C59.4523 21.0497 59.8639 21.1573 60.3833 21.1573C60.8773 21.1573 61.3206 21.0433 61.7133 20.8153C62.1059 20.5747 62.3909 20.2263 62.5683 19.7703L63.0243 21.1383C62.8089 21.797 62.4163 22.2973 61.8463 22.6393C61.2763 22.9813 60.5416 23.1523 59.6423 23.1523Z" fill="#0E4DCA"/>
<path d="M72.3948 23.1523C71.1915 23.1523 70.2542 22.8483 69.5828 22.2403C68.9115 21.6197 68.5758 20.7013 68.5758 19.4853V10.5173H71.5398V19.4473C71.5398 19.878 71.6538 20.2137 71.8818 20.4543C72.1098 20.6823 72.4202 20.7963 72.8128 20.7963C73.2815 20.7963 73.6805 20.6697 74.0098 20.4163L74.8078 22.5063C74.5038 22.7217 74.1365 22.8863 73.7058 23.0003C73.2878 23.1017 72.8508 23.1523 72.3948 23.1523ZM66.9988 15.2863V13.0063H74.0858V15.2863H66.9988Z" fill="#0E4DCA"/>
<path d="M82.7417 23.0003V21.0053L82.5517 20.5683V16.9963C82.5517 16.363 82.3553 15.869 81.9627 15.5143C81.5827 15.1597 80.9937 14.9823 80.1957 14.9823C79.651 14.9823 79.1127 15.071 78.5807 15.2483C78.0613 15.413 77.618 15.641 77.2507 15.9323L76.1867 13.8613C76.744 13.4687 77.4153 13.1647 78.2007 12.9493C78.986 12.734 79.784 12.6263 80.5947 12.6263C82.1527 12.6263 83.3623 12.9937 84.2237 13.7283C85.085 14.463 85.5157 15.6093 85.5157 17.1673V23.0003H82.7417ZM79.6257 23.1523C78.8277 23.1523 78.1437 23.0193 77.5737 22.7533C77.0037 22.4747 76.5667 22.101 76.2627 21.6323C75.9587 21.1637 75.8067 20.638 75.8067 20.0553C75.8067 19.4473 75.9523 18.9153 76.2437 18.4593C76.5477 18.0033 77.0227 17.6487 77.6687 17.3953C78.3147 17.1293 79.157 16.9963 80.1957 16.9963H82.9127V18.7253H80.5187C79.822 18.7253 79.3407 18.8393 79.0747 19.0673C78.8213 19.2953 78.6947 19.5803 78.6947 19.9223C78.6947 20.3023 78.8403 20.6063 79.1317 20.8343C79.4357 21.0497 79.8473 21.1573 80.3667 21.1573C80.8607 21.1573 81.304 21.0433 81.6967 20.8153C82.0893 20.5747 82.3743 20.2263 82.5517 19.7703L83.0077 21.1383C82.7923 21.797 82.3997 22.2973 81.8297 22.6393C81.2597 22.9813 80.525 23.1523 79.6257 23.1523Z" fill="#0E4DCA"/>
<path d="M94.2402 23.1523C93.3789 23.1523 92.6252 22.9623 91.9792 22.5823C91.3332 22.2023 90.8266 21.626 90.4592 20.8533C90.1046 20.068 89.9272 19.08 89.9272 17.8893C89.9272 16.686 90.0982 15.698 90.4402 14.9253C90.7822 14.1527 91.2762 13.5763 91.9222 13.1963C92.5682 12.8163 93.3409 12.6263 94.2402 12.6263C95.2029 12.6263 96.0642 12.848 96.8242 13.2913C97.5969 13.722 98.2049 14.33 98.6482 15.1153C99.1042 15.9007 99.3322 16.8253 99.3322 17.8893C99.3322 18.966 99.1042 19.897 98.6482 20.6823C98.2049 21.4677 97.5969 22.0757 96.8242 22.5063C96.0642 22.937 95.2029 23.1523 94.2402 23.1523ZM88.1982 26.6863V12.7783H91.0292V14.8683L90.9722 17.9083L91.1622 20.9293V26.6863H88.1982ZM93.7272 20.7203C94.2212 20.7203 94.6582 20.6063 95.0382 20.3783C95.4309 20.1503 95.7412 19.8273 95.9692 19.4093C96.2099 18.9787 96.3302 18.472 96.3302 17.8893C96.3302 17.294 96.2099 16.7873 95.9692 16.3693C95.7412 15.9513 95.4309 15.6283 95.0382 15.4003C94.6582 15.1723 94.2212 15.0583 93.7272 15.0583C93.2332 15.0583 92.7899 15.1723 92.3972 15.4003C92.0046 15.6283 91.6942 15.9513 91.4662 16.3693C91.2382 16.7873 91.1242 17.294 91.1242 17.8893C91.1242 18.472 91.2382 18.9787 91.4662 19.4093C91.6942 19.8273 92.0046 20.1503 92.3972 20.3783C92.7899 20.6063 93.2332 20.7203 93.7272 20.7203Z" fill="#0E4DCA"/>
<path d="M101.316 23.0003V8.90234H104.28V23.0003H101.316Z" fill="#0E4DCA"/>
<path d="M112.104 23.1523C110.939 23.1523 109.913 22.9243 109.026 22.4683C108.152 22.0123 107.475 21.3917 106.993 20.6063C106.512 19.8083 106.271 18.9027 106.271 17.8893C106.271 16.8633 106.506 15.9577 106.974 15.1723C107.456 14.3743 108.108 13.7537 108.931 13.3103C109.755 12.8543 110.686 12.6263 111.724 12.6263C112.725 12.6263 113.624 12.8417 114.422 13.2723C115.233 13.6903 115.873 14.2983 116.341 15.0963C116.81 15.8817 117.044 16.8253 117.044 17.9273C117.044 18.0413 117.038 18.1743 117.025 18.3263C117.013 18.4657 117 18.5987 116.987 18.7253H108.684V16.9963H115.429L114.289 17.5093C114.289 16.9773 114.182 16.515 113.966 16.1223C113.751 15.7297 113.453 15.4257 113.073 15.2103C112.693 14.9823 112.25 14.8683 111.743 14.8683C111.237 14.8683 110.787 14.9823 110.394 15.2103C110.014 15.4257 109.717 15.736 109.501 16.1413C109.286 16.534 109.178 17.0027 109.178 17.5473V18.0033C109.178 18.5607 109.299 19.0547 109.539 19.4853C109.793 19.9033 110.141 20.2263 110.584 20.4543C111.04 20.6697 111.572 20.7773 112.18 20.7773C112.725 20.7773 113.2 20.695 113.605 20.5303C114.023 20.3657 114.403 20.1187 114.745 19.7893L116.322 21.4993C115.854 22.0313 115.265 22.443 114.555 22.7343C113.846 23.013 113.029 23.1523 112.104 23.1523Z" fill="#0E4DCA"/>
<path d="M117.447 23.0003L122.026 16.9963L121.969 18.6303L117.58 12.7783H120.905L123.679 16.5973L122.425 16.6353L125.294 12.7783H128.448L124.04 18.5733V16.9773L128.6 23.0003H125.237L122.33 18.9343L123.565 19.1053L120.677 23.0003H117.447Z" fill="#0E4DCA"/>
<path d="M44.804 37.1427C43.612 37.1427 42.68 36.8107 42.008 36.1467C41.336 35.4827 41 34.5347 41 33.3027V28.5987H42.944V33.2307C42.944 34.0307 43.108 34.6067 43.436 34.9587C43.764 35.3107 44.224 35.4867 44.816 35.4867C45.408 35.4867 45.868 35.3107 46.196 34.9587C46.524 34.6067 46.688 34.0307 46.688 33.2307V28.5987H48.608V33.3027C48.608 34.5347 48.272 35.4827 47.6 36.1467C46.928 36.8107 45.996 37.1427 44.804 37.1427Z" fill="#0E4DCA"/>
<path d="M54.681 30.4467C55.193 30.4467 55.649 30.5507 56.049 30.7587C56.457 30.9587 56.777 31.2707 57.009 31.6947C57.241 32.1107 57.357 32.6467 57.357 33.3027V36.9987H55.485V33.5907C55.485 33.0707 55.369 32.6867 55.137 32.4387C54.913 32.1907 54.593 32.0667 54.177 32.0667C53.881 32.0667 53.613 32.1307 53.373 32.2587C53.141 32.3787 52.957 32.5667 52.821 32.8227C52.693 33.0787 52.629 33.4067 52.629 33.8067V36.9987H50.757V30.5427H52.545V32.3307L52.209 31.7907C52.441 31.3587 52.773 31.0267 53.205 30.7947C53.637 30.5627 54.129 30.4467 54.681 30.4467Z" fill="#0E4DCA"/>
<path d="M59.4139 36.9987V30.5427H61.2859V36.9987H59.4139ZM60.3499 29.6427C60.0059 29.6427 59.7259 29.5427 59.5099 29.3427C59.2939 29.1427 59.1859 28.8947 59.1859 28.5987C59.1859 28.3027 59.2939 28.0547 59.5099 27.8547C59.7259 27.6547 60.0059 27.5547 60.3499 27.5547C60.6939 27.5547 60.9739 27.6507 61.1899 27.8427C61.4059 28.0267 61.5139 28.2667 61.5139 28.5627C61.5139 28.8747 61.4059 29.1347 61.1899 29.3427C60.9819 29.5427 60.7019 29.6427 60.3499 29.6427Z" fill="#0E4DCA"/>
<path d="M65.1353 36.9987L62.4233 30.5427H64.3553L66.6113 36.0987H65.6513L67.9913 30.5427H69.7913L67.0673 36.9987H65.1353Z" fill="#0E4DCA"/>
<path d="M73.9434 37.0947C73.2074 37.0947 72.5594 36.9507 71.9994 36.6627C71.4474 36.3747 71.0194 35.9827 70.7154 35.4867C70.4114 34.9827 70.2594 34.4107 70.2594 33.7707C70.2594 33.1227 70.4074 32.5507 70.7034 32.0547C71.0074 31.5507 71.4194 31.1587 71.9394 30.8787C72.4594 30.5907 73.0474 30.4467 73.7034 30.4467C74.3354 30.4467 74.9034 30.5827 75.4074 30.8547C75.9194 31.1187 76.3234 31.5027 76.6194 32.0067C76.9154 32.5027 77.0634 33.0987 77.0634 33.7947C77.0634 33.8667 77.0594 33.9507 77.0514 34.0467C77.0434 34.1347 77.0354 34.2187 77.0274 34.2987H71.7834V33.2067H76.0434L75.3234 33.5307C75.3234 33.1947 75.2554 32.9027 75.1194 32.6547C74.9834 32.4067 74.7954 32.2147 74.5554 32.0787C74.3154 31.9347 74.0354 31.8627 73.7154 31.8627C73.3954 31.8627 73.1114 31.9347 72.8634 32.0787C72.6234 32.2147 72.4354 32.4107 72.2994 32.6667C72.1634 32.9147 72.0954 33.2107 72.0954 33.5547V33.8427C72.0954 34.1947 72.1714 34.5067 72.3234 34.7787C72.4834 35.0427 72.7034 35.2467 72.9834 35.3907C73.2714 35.5267 73.6074 35.5947 73.9914 35.5947C74.3354 35.5947 74.6354 35.5427 74.8914 35.4387C75.1554 35.3347 75.3954 35.1787 75.6114 34.9707L76.6074 36.0507C76.3114 36.3867 75.9394 36.6467 75.4914 36.8307C75.0434 37.0067 74.5274 37.0947 73.9434 37.0947Z" fill="#0E4DCA"/>
<path d="M78.6697 36.9987V30.5427H80.4577V32.3667L80.2057 31.8387C80.3977 31.3827 80.7057 31.0387 81.1297 30.8067C81.5537 30.5667 82.0697 30.4467 82.6777 30.4467V32.1747C82.5977 32.1667 82.5257 32.1627 82.4617 32.1627C82.3977 32.1547 82.3297 32.1507 82.2577 32.1507C81.7457 32.1507 81.3297 32.2987 81.0097 32.5947C80.6977 32.8827 80.5417 33.3347 80.5417 33.9507V36.9987H78.6697Z" fill="#0E4DCA"/>
<path d="M86.3697 37.0947C85.8177 37.0947 85.2857 37.0307 84.7737 36.9027C84.2697 36.7667 83.8697 36.5987 83.5737 36.3987L84.1977 35.0547C84.4937 35.2387 84.8417 35.3907 85.2417 35.5107C85.6497 35.6227 86.0497 35.6787 86.4417 35.6787C86.8737 35.6787 87.1777 35.6267 87.3537 35.5227C87.5377 35.4187 87.6297 35.2747 87.6297 35.0907C87.6297 34.9387 87.5577 34.8267 87.4137 34.7547C87.2777 34.6747 87.0937 34.6147 86.8617 34.5747C86.6297 34.5347 86.3737 34.4947 86.0937 34.4547C85.8217 34.4147 85.5457 34.3627 85.2657 34.2987C84.9857 34.2267 84.7297 34.1227 84.4977 33.9867C84.2657 33.8507 84.0777 33.6667 83.9337 33.4347C83.7977 33.2027 83.7297 32.9027 83.7297 32.5347C83.7297 32.1267 83.8457 31.7667 84.0777 31.4547C84.3177 31.1427 84.6617 30.8987 85.1097 30.7227C85.5577 30.5387 86.0937 30.4467 86.7177 30.4467C87.1577 30.4467 87.6057 30.4947 88.0617 30.5907C88.5177 30.6867 88.8977 30.8267 89.2017 31.0107L88.5777 32.3427C88.2657 32.1587 87.9497 32.0347 87.6297 31.9707C87.3177 31.8987 87.0137 31.8627 86.7177 31.8627C86.3017 31.8627 85.9977 31.9187 85.8057 32.0307C85.6137 32.1427 85.5177 32.2867 85.5177 32.4627C85.5177 32.6227 85.5857 32.7427 85.7217 32.8227C85.8657 32.9027 86.0537 32.9667 86.2857 33.0147C86.5177 33.0627 86.7697 33.1067 87.0417 33.1467C87.3217 33.1787 87.6017 33.2307 87.8817 33.3027C88.1617 33.3747 88.4137 33.4787 88.6377 33.6147C88.8697 33.7427 89.0577 33.9227 89.2017 34.1547C89.3457 34.3787 89.4177 34.6747 89.4177 35.0427C89.4177 35.4427 89.2977 35.7987 89.0577 36.1107C88.8177 36.4147 88.4697 36.6547 88.0137 36.8307C87.5657 37.0067 87.0177 37.0947 86.3697 37.0947Z" fill="#0E4DCA"/>
<path d="M94.8927 36.9987V35.7387L94.7727 35.4627V33.2067C94.7727 32.8067 94.6487 32.4947 94.4007 32.2707C94.1607 32.0467 93.7887 31.9347 93.2847 31.9347C92.9407 31.9347 92.6007 31.9907 92.2647 32.1027C91.9367 32.2067 91.6567 32.3507 91.4247 32.5347L90.7527 31.2267C91.1047 30.9787 91.5287 30.7867 92.0247 30.6507C92.5207 30.5147 93.0247 30.4467 93.5367 30.4467C94.5207 30.4467 95.2847 30.6787 95.8287 31.1427C96.3727 31.6067 96.6447 32.3307 96.6447 33.3147V36.9987H94.8927ZM92.9247 37.0947C92.4207 37.0947 91.9887 37.0107 91.6287 36.8427C91.2687 36.6667 90.9927 36.4307 90.8007 36.1347C90.6087 35.8387 90.5127 35.5067 90.5127 35.1387C90.5127 34.7547 90.6047 34.4187 90.7887 34.1307C90.9807 33.8427 91.2807 33.6187 91.6887 33.4587C92.0967 33.2907 92.6287 33.2067 93.2847 33.2067H95.0007V34.2987H93.4887C93.0487 34.2987 92.7447 34.3707 92.5767 34.5147C92.4167 34.6587 92.3367 34.8387 92.3367 35.0547C92.3367 35.2947 92.4287 35.4867 92.6127 35.6307C92.8047 35.7667 93.0647 35.8347 93.3927 35.8347C93.7047 35.8347 93.9847 35.7627 94.2327 35.6187C94.4807 35.4667 94.6607 35.2467 94.7727 34.9587L95.0607 35.8227C94.9247 36.2387 94.6767 36.5547 94.3167 36.7707C93.9567 36.9867 93.4927 37.0947 92.9247 37.0947Z" fill="#0E4DCA"/>
<path d="M98.6989 36.9987V28.0947H100.571V36.9987H98.6989Z" fill="#0E4DCA"/>
<path d="M110.579 37.1427C109.931 37.1427 109.327 37.0387 108.767 36.8307C108.215 36.6147 107.735 36.3107 107.327 35.9187C106.919 35.5267 106.599 35.0667 106.367 34.5387C106.143 34.0107 106.031 33.4307 106.031 32.7987C106.031 32.1667 106.143 31.5867 106.367 31.0587C106.599 30.5307 106.919 30.0707 107.327 29.6787C107.743 29.2867 108.227 28.9867 108.779 28.7787C109.331 28.5627 109.935 28.4547 110.591 28.4547C111.319 28.4547 111.975 28.5827 112.559 28.8387C113.151 29.0867 113.647 29.4547 114.047 29.9427L112.799 31.0947C112.511 30.7667 112.191 30.5227 111.839 30.3627C111.487 30.1947 111.103 30.1107 110.687 30.1107C110.295 30.1107 109.935 30.1747 109.607 30.3027C109.279 30.4307 108.995 30.6147 108.755 30.8547C108.515 31.0947 108.327 31.3787 108.191 31.7067C108.063 32.0347 107.999 32.3987 107.999 32.7987C107.999 33.1987 108.063 33.5627 108.191 33.8907C108.327 34.2187 108.515 34.5027 108.755 34.7427C108.995 34.9827 109.279 35.1667 109.607 35.2947C109.935 35.4227 110.295 35.4867 110.687 35.4867C111.103 35.4867 111.487 35.4067 111.839 35.2467C112.191 35.0787 112.511 34.8267 112.799 34.4907L114.047 35.6427C113.647 36.1307 113.151 36.5027 112.559 36.7587C111.975 37.0147 111.315 37.1427 110.579 37.1427Z" fill="#0E4DCA"/>
<path d="M119.512 36.9987V35.7387L119.392 35.4627V33.2067C119.392 32.8067 119.268 32.4947 119.02 32.2707C118.78 32.0467 118.408 31.9347 117.904 31.9347C117.56 31.9347 117.22 31.9907 116.884 32.1027C116.556 32.2067 116.276 32.3507 116.044 32.5347L115.372 31.2267C115.724 30.9787 116.148 30.7867 116.644 30.6507C117.14 30.5147 117.644 30.4467 118.156 30.4467C119.14 30.4467 119.904 30.6787 120.448 31.1427C120.992 31.6067 121.264 32.3307 121.264 33.3147V36.9987H119.512ZM117.544 37.0947C117.04 37.0947 116.608 37.0107 116.248 36.8427C115.888 36.6667 115.612 36.4307 115.42 36.1347C115.228 35.8387 115.132 35.5067 115.132 35.1387C115.132 34.7547 115.224 34.4187 115.408 34.1307C115.6 33.8427 115.9 33.6187 116.308 33.4587C116.716 33.2907 117.248 33.2067 117.904 33.2067H119.62V34.2987H118.108C117.668 34.2987 117.364 34.3707 117.196 34.5147C117.036 34.6587 116.956 34.8387 116.956 35.0547C116.956 35.2947 117.048 35.4867 117.232 35.6307C117.424 35.7667 117.684 35.8347 118.012 35.8347C118.324 35.8347 118.604 35.7627 118.852 35.6187C119.1 35.4667 119.28 35.2467 119.392 34.9587L119.68 35.8227C119.544 36.2387 119.296 36.5547 118.936 36.7707C118.576 36.9867 118.112 37.0947 117.544 37.0947Z" fill="#0E4DCA"/>
<path d="M125.959 37.0947C125.199 37.0947 124.607 36.9027 124.183 36.5187C123.759 36.1267 123.547 35.5467 123.547 34.7787V29.1147H125.419V34.7547C125.419 35.0267 125.491 35.2387 125.635 35.3907C125.779 35.5347 125.975 35.6067 126.223 35.6067C126.519 35.6067 126.771 35.5267 126.979 35.3667L127.483 36.6867C127.291 36.8227 127.059 36.9267 126.787 36.9987C126.523 37.0627 126.247 37.0947 125.959 37.0947ZM122.551 32.1267V30.6867H127.027V32.1267H122.551Z" fill="#0E4DCA"/>
<path d="M132.853 36.9987V35.7387L132.733 35.4627V33.2067C132.733 32.8067 132.609 32.4947 132.361 32.2707C132.121 32.0467 131.749 31.9347 131.245 31.9347C130.901 31.9347 130.561 31.9907 130.225 32.1027C129.897 32.2067 129.617 32.3507 129.385 32.5347L128.713 31.2267C129.065 30.9787 129.489 30.7867 129.985 30.6507C130.481 30.5147 130.985 30.4467 131.497 30.4467C132.481 30.4467 133.245 30.6787 133.789 31.1427C134.333 31.6067 134.605 32.3307 134.605 33.3147V36.9987H132.853ZM130.885 37.0947C130.381 37.0947 129.949 37.0107 129.589 36.8427C129.229 36.6667 128.953 36.4307 128.761 36.1347C128.569 35.8387 128.473 35.5067 128.473 35.1387C128.473 34.7547 128.565 34.4187 128.749 34.1307C128.941 33.8427 129.241 33.6187 129.649 33.4587C130.057 33.2907 130.589 33.2067 131.245 33.2067H132.961V34.2987H131.449C131.009 34.2987 130.705 34.3707 130.537 34.5147C130.377 34.6587 130.297 34.8387 130.297 35.0547C130.297 35.2947 130.389 35.4867 130.573 35.6307C130.765 35.7667 131.025 35.8347 131.353 35.8347C131.665 35.8347 131.945 35.7627 132.193 35.6187C132.441 35.4667 132.621 35.2467 132.733 34.9587L133.021 35.8227C132.885 36.2387 132.637 36.5547 132.277 36.7707C131.917 36.9867 131.453 37.0947 130.885 37.0947Z" fill="#0E4DCA"/>
<path d="M136.66 36.9987V28.0947H138.532V36.9987H136.66Z" fill="#0E4DCA"/>
<path d="M143.701 37.0947C143.013 37.0947 142.401 36.9507 141.865 36.6627C141.337 36.3747 140.917 35.9827 140.605 35.4867C140.301 34.9827 140.149 34.4107 140.149 33.7707C140.149 33.1227 140.301 32.5507 140.605 32.0547C140.917 31.5507 141.337 31.1587 141.865 30.8787C142.401 30.5907 143.013 30.4467 143.701 30.4467C144.381 30.4467 144.989 30.5907 145.525 30.8787C146.061 31.1587 146.481 31.5467 146.785 32.0427C147.089 32.5387 147.241 33.1147 147.241 33.7707C147.241 34.4107 147.089 34.9827 146.785 35.4867C146.481 35.9827 146.061 36.3747 145.525 36.6627C144.989 36.9507 144.381 37.0947 143.701 37.0947ZM143.701 35.5587C144.013 35.5587 144.293 35.4867 144.541 35.3427C144.789 35.1987 144.985 34.9947 145.129 34.7307C145.273 34.4587 145.345 34.1387 145.345 33.7707C145.345 33.3947 145.273 33.0747 145.129 32.8107C144.985 32.5467 144.789 32.3427 144.541 32.1987C144.293 32.0547 144.013 31.9827 143.701 31.9827C143.389 31.9827 143.109 32.0547 142.861 32.1987C142.613 32.3427 142.413 32.5467 142.261 32.8107C142.117 33.0747 142.045 33.3947 142.045 33.7707C142.045 34.1387 142.117 34.4587 142.261 34.7307C142.413 34.9947 142.613 35.1987 142.861 35.3427C143.109 35.4867 143.389 35.5587 143.701 35.5587Z" fill="#0E4DCA"/>
<path d="M151.888 39.4227C151.28 39.4227 150.692 39.3467 150.124 39.1947C149.564 39.0507 149.096 38.8307 148.72 38.5347L149.464 37.1907C149.736 37.4147 150.08 37.5907 150.496 37.7187C150.92 37.8547 151.336 37.9227 151.744 37.9227C152.408 37.9227 152.888 37.7747 153.184 37.4787C153.488 37.1827 153.64 36.7427 153.64 36.1587V35.1867L153.76 33.5667L153.736 31.9347V30.5427H155.512V35.9187C155.512 37.1187 155.2 38.0027 154.576 38.5707C153.952 39.1387 153.056 39.4227 151.888 39.4227ZM151.6 36.6867C151 36.6867 150.456 36.5587 149.968 36.3027C149.488 36.0387 149.1 35.6747 148.804 35.2107C148.516 34.7387 148.372 34.1907 148.372 33.5667C148.372 32.9347 148.516 32.3867 148.804 31.9227C149.1 31.4507 149.488 31.0867 149.968 30.8307C150.456 30.5747 151 30.4467 151.6 30.4467C152.144 30.4467 152.624 30.5587 153.04 30.7827C153.456 30.9987 153.78 31.3387 154.012 31.8027C154.244 32.2587 154.36 32.8467 154.36 33.5667C154.36 34.2787 154.244 34.8667 154.012 35.3307C153.78 35.7867 153.456 36.1267 153.04 36.3507C152.624 36.5747 152.144 36.6867 151.6 36.6867ZM151.972 35.1507C152.3 35.1507 152.592 35.0867 152.848 34.9587C153.104 34.8227 153.304 34.6347 153.448 34.3947C153.592 34.1547 153.664 33.8787 153.664 33.5667C153.664 33.2467 153.592 32.9707 153.448 32.7387C153.304 32.4987 153.104 32.3147 152.848 32.1867C152.592 32.0507 152.3 31.9827 151.972 31.9827C151.644 31.9827 151.352 32.0507 151.096 32.1867C150.84 32.3147 150.636 32.4987 150.484 32.7387C150.34 32.9707 150.268 33.2467 150.268 33.5667C150.268 33.8787 150.34 34.1547 150.484 34.3947C150.636 34.6347 150.84 34.8227 151.096 34.9587C151.352 35.0867 151.644 35.1507 151.972 35.1507Z" fill="#0E4DCA"/>
</svg>
