<svg width="20" height="20" viewBox="0 0 20 20" fill="none" xmlns="http://www.w3.org/2000/svg">
<mask id="mask0_7284_65558" style="mask-type:alpha" maskUnits="userSpaceOnUse" x="0" y="0" width="20" height="20">
<rect width="20" height="20" fill="#D9D9D9"/>
</mask>
<g mask="url(#mask0_7284_65558)">
<path d="M6.2487 18.3346C5.44314 18.3346 4.75564 18.0499 4.1862 17.4805C3.61675 16.911 3.33203 16.2235 3.33203 15.418V4.58464C3.33203 3.77908 3.61675 3.09158 4.1862 2.52214C4.75564 1.95269 5.44314 1.66797 6.2487 1.66797H16.6654V14.168C16.3181 14.168 16.023 14.2895 15.7799 14.5326C15.5369 14.7756 15.4154 15.0707 15.4154 15.418C15.4154 15.7652 15.5369 16.0603 15.7799 16.3034C16.023 16.5464 16.3181 16.668 16.6654 16.668V18.3346H6.2487ZM4.9987 12.7721C5.19314 12.6749 5.39453 12.6055 5.60286 12.5638C5.8112 12.5221 6.02648 12.5013 6.2487 12.5013H6.66536V3.33464H6.2487C5.90148 3.33464 5.60634 3.45616 5.36328 3.69922C5.12023 3.94227 4.9987 4.23741 4.9987 4.58464V12.7721ZM8.33203 12.5013H14.9987V3.33464H8.33203V12.5013ZM6.2487 16.668H14.0195C13.9362 16.4735 13.8702 16.2756 13.8216 16.0742C13.773 15.8728 13.7487 15.6541 13.7487 15.418C13.7487 15.1957 13.7695 14.9805 13.8112 14.7721C13.8529 14.5638 13.9223 14.3624 14.0195 14.168H6.2487C5.88759 14.168 5.58898 14.2895 5.35286 14.5326C5.11675 14.7756 4.9987 15.0707 4.9987 15.418C4.9987 15.7791 5.11675 16.0777 5.35286 16.3138C5.58898 16.5499 5.88759 16.668 6.2487 16.668Z" fill="#575757"/>
</g>
</svg>
